/* XPM */
static char *player_inair_16p[] = {
/* columns rows colors chars-per-pixel */
"16 16 2 1 ",
"# c #aa1005",
". c #ffffff",
/* pixels */
"#######..#######",
"#######..#######",
"#######..#######",
"##............##",
"##............##",
"##............##",
"##............##",
"##............##",
"##............##",
"##............##",
"##............##",
"##............##",
"##............##",
"##............##",
"################",
"################",
};
