/* XPM */
static char *player_5_L_16p[] = {
/* columns rows colors chars-per-pixel */
"16 16 2 1 ",
"# c #aa1005",
". c #ffffff",
/* pixels */
"################",
"################",
"############..##",
"###########..###",
"##########..####",
"#########..#####",
"########..######",
"#######..#######",
"######..########",
"#####..#########",
"####..##########",
"###..###########",
"##..############",
"#..............#",
"#..............#",
"################",
};
