/* XPM */
static char *player_2_U_128p[] = {
/* columns rows colors chars-per-pixel */
"128 128 2 1 ",
"# c #aa1005",
". c #ffffff",
/* pixels */
"################################################################################################################################",
"################################################################################################################################",
"################################################################################################################################",
"################################################################################################################################",
"################################################################################################################################",
"################################################################################################################################",
"################################################################################################################################",
"################################################################################################################################",
"################################################################################################################........########",
"################################################################################################################........########",
"################################################################################################################........########",
"################################################################################################################........########",
"################################################################################################################........########",
"################################################################################################################........########",
"################################################################################################################........########",
"################################################################################################################........########",
"################################################################################################################........########",
"################################################################################################################........########",
"################################################################################################################........########",
"################################################################################################################........########",
"################################################################################################################........########",
"################################################################################################################........########",
"################################################################################################################........########",
"################################################################################################################........########",
"################################################################################################################........########",
"################################################################################################################........########",
"################################################################################################################........########",
"################################################################################################################........########",
"################################################################################################################........########",
"################################################################################################################........########",
"################################################################################################################........########",
"################################################################################################################........########",
"################################################################################################################........########",
"################################################################################################################........########",
"################################################################################################################........########",
"################################################################################################################........########",
"################################################################################################################........########",
"################################################################################################################........########",
"################################################################################################################........########",
"################################################################################################################........########",
"################################################################################################################........########",
"################################################################################################################........########",
"################################################################################################################........########",
"################################################################################################################........########",
"################################################################################################################........########",
"################################################################################################################........########",
"################################################################################################################........########",
"################################################################################################################........########",
"################################################################################################################........########",
"################################################################################################################........########",
"################################################################################################################........########",
"################################################################################################################........########",
"################################################################################################################........########",
"################################################################################################################........########",
"################################################################################################################........########",
"################################################################################################################........########",
"################################################################################################################........########",
"############################################################............................................................########",
"############################################################............................................................########",
"############################################################............................................................########",
"############################################################............................................................########",
"############################################################............................................................########",
"############################################################............................................................########",
"############################################################............................................................########",
"############################################################............................................................########",
"################################################################################################################################",
"################################################################################################################################",
"################################################################################################################################",
"################################################################################################################################",
"################################################################################################################################",
"################################################################################################################################",
"################################################################################################################################",
"################################################################################################################################",
"################################################################################################################################",
"################################################################################################################################",
"################################################################################################################################",
"################################################################################################################################",
"################################################################################################################################",
"################################################################################################################################",
"################################################################################################################################",
"################################################################################################################################",
"################################################################################################################################",
"################################################################################################################################",
"################################################################################################################################",
"################################################################################################################################",
"################################################################################################################################",
"################################################################################################################################",
"################################################################################################################################",
"################################################################################################################################",
"################################################################################################################################",
"################################################################################################################################",
"################################################################################################################################",
"################################################################################################################################",
"################################################################################################################################",
"################################################################################################################################",
"################################################################################################################################",
"################################################################################################################################",
"################################################################################################################################",
"################################################################################################################################",
"################################################################################################################################",
"################################################################################################################################",
"################################################################################################################################",
"################################################################################################################################",
"################################################################################################################################",
"################################################################################################################################",
"################################################################################################################################",
"################################################################################################################################",
"################################################################################################################################",
"################################################################################################################################",
"################################################################################################################################",
"################################################################################################################################",
"################################################################################################################################",
"################################################################################################################################",
"################################################################################################################################",
"################################################################################################################################",
"################################################################################################################################",
"################################################################################################################################",
"################################################################################################################################",
"################################################################################################################################",
"################################################################################################################################",
"################################################################################################################################",
"################################################################################################################################",
"################################################################################################################################",
"################################################################################################################################",
"################################################################################################################################",
"################################################################################################################################",
"################################################################################################################################",
"################################################################################################################################",
};
