/* XPM */
static char *player_5_R_128p[] = {
/* columns rows colors chars-per-pixel */
"128 128 2 1 ",
"# c #aa1005",
". c #ffffff",
/* pixels */
"################################################################################################################################",
"################################################################################################################################",
"################################################################################################################################",
"################################################################################################################################",
"################################################################################################################################",
"################################################################################################################################",
"################################################################################################################################",
"################################################################################################################################",
"####################################################################################################################....########",
"###################################################################################################################.....########",
"##################################################################################################################......########",
"#################################################################################################################.......########",
"################################################################################################################........########",
"###############################################################################################################........#########",
"##############################################################################################################........##########",
"#############################################################################################################........###########",
"############################################################################################################........############",
"###########################################################################################################........#############",
"##########################################################################################################........##############",
"#########################################################################################################........###############",
"########################################################################################################........################",
"#######################################################################################################........#################",
"######################################################################################################........##################",
"#####################################################################################################........###################",
"####################################################################################################........####################",
"###################################################################################################........#####################",
"##################################################################################################........######################",
"#################################################################################################........#######################",
"################################################################################################........########################",
"###############################################################################################........#########################",
"##############################################################################################........##########################",
"#############################################################################################........###########################",
"############################################################################################........############################",
"###########################################################################################........#############################",
"##########################################################################################........##############################",
"#########################################################################################........###############################",
"########################################################################################........################################",
"#######################################################################################........#################################",
"######################################################################################........##################################",
"#####################################################################################........###################################",
"####################################################################################........####################################",
"###################################################################################........#####################################",
"##################################################################################........######################################",
"#################################################################################........#######################################",
"################################################################################........########################################",
"###############################################################################........#########################################",
"##############################################################################........##########################################",
"#############################################################################........###########################################",
"############################################################################........############################################",
"###########################################################################........#############################################",
"##########################################################################........##############################################",
"#########################################################################........###############################################",
"########################################################################........################################################",
"#######################################################################........#################################################",
"######################################################################........##################################################",
"#####################################################################........###################################################",
"####################################################################........####################################################",
"###################################################################........#####################################################",
"##################################################################........######################################################",
"#################################################################........#######################################################",
"################################################################........########################################################",
"###############################################################........#########################################################",
"##############################################################........##########################################################",
"#############################################################........###########################################################",
"############################################################........############################################################",
"###########################################################........#############################################################",
"##########################################################........##############################################################",
"#########################################################........###############################################################",
"########################################################........################################################################",
"#######################################################........#################################################################",
"######################################################........##################################################################",
"#####################################################........###################################################################",
"####################################################........####################################################################",
"###################################################........#####################################################################",
"##################################################........######################################################################",
"#################################################........#######################################################################",
"################################################........########################################################################",
"###############################################........#########################################################################",
"##############################################........##########################################################################",
"#############################################........###########################################################################",
"############################################........############################################################################",
"###########################################........#############################################################################",
"##########################################........##############################################################################",
"#########################################........###############################################################################",
"########################################........################################################################################",
"#######################################........#################################################################################",
"######################################........##################################################################################",
"#####################################........###################################################################################",
"####################################........####################################################################################",
"###################################........#####################################################################################",
"##################################........######################################################################################",
"#################################........#######################################################################################",
"################################........########################################################################################",
"###############################........#########################################################################################",
"##############################........##########################################################################################",
"#############################........###########################################################################################",
"############################........############################################################################################",
"###########################........#############################################################################################",
"##########################........##############################################################################################",
"#########################........###############################################################################################",
"########################........################################################################################################",
"#######################........#################################################################################################",
"######################........##################################################################################################",
"#####################........###################################################################################################",
"####################........####################################################################################################",
"###################........#####################################################################################################",
"##################........######################################################################################################",
"#################........#######################################################################################################",
"################........########################################################################################################",
"###############........#########################################################################################################",
"##############........##########################################################################################################",
"#############........###########################################################################################################",
"############............................................................................................................########",
"###########.............................................................................................................########",
"##########..............................................................................................................########",
"#########...............................................................................................................########",
"########................................................................................................................########",
"########................................................................................................................########",
"########................................................................................................................########",
"########................................................................................................................########",
"################################################################################################################################",
"################################################################################################################################",
"################################################################################################################################",
"################################################################################################################################",
"################################################################################################################################",
"################################################################################################################################",
"################################################################################################################################",
"################################################################################################################################",
};
