/* XPM */
static char *dummy[]={
"32 32 22 1",
"k c #725ef4",
"j c #735df4",
"l c #7559f3",
"i c #7757f3",
"n c #7b51f3",
"f c #7f4cf2",
"h c #8347f2",
"p c #8445f2",
"e c #8642f2",
"d c #883ff1",
"a c #883ff2",
"m c #8840f1",
"o c #8c3af1",
"b c #8f35f1",
"# c #9034f1",
"g c #9331f1",
"c c #942ff0",
"t c #9a26f0",
"s c #9a27f0",
"r c #9b26f0",
"q c #9d23f0",
". c gold",
"................................",
"................................",
"...#a.bc........................",
"...de.fg........................",
"...he.ig........................",
"...fe.jg........................",
"...fe.kg........................",
"...he.lg........................",
"...me.ng........................",
"...oe.pg........................",
"...#e.og........................",
"...qr.st........................",
"................................",
"................................",
"................................",
"................................",
"................................",
"................................",
"................................",
"................................",
"................................",
"................................",
"................................",
"................................",
"................................",
"................................",
"................................",
"................................",
"................................",
"................................",
"................................",
"................................"};
