/* XPM */
static char *dummy[]={
"16 16 27 1",
"l c #8445f2",
"h c #883ff2",
"j c #8840f2",
"t c #893ef1",
"r c #893ff2",
"p c #8b3bf1",
"d c #8d39f1",
"i c #8e37f1",
"b c #8f36f1",
"m c #9034f1",
"f c #9035f1",
"k c #9133f1",
"n c #9134f1",
"v c #9232f1",
"a c #9330f1",
"g c #9331f1",
"y c #942ef0",
"w c #942ff0",
"s c #9430f0",
"o c #952ef0",
"e c #962cf0",
"# c #962df0",
"x c #9829f0",
"q c #982af0",
"c c #9929f0",
"u c #9b25f0",
". c gold",
"................",
".#abcbdef.......",
".fgheijkl.......",
".mgheijnl.......",
".ogpqirst.......",
".uqvuwkxy.......",
"................",
"................",
"................",
"................",
"................",
"................",
"................",
"................",
"................",
"................"};
