/* XPM */
static char *dummy[]={
"32 32 62 1",
"A c #6d65f4",
"q c #6e62f3",
"Q c #6e63f3",
"C c #6f61f3",
"I c #6f62f4",
"u c #7060f3",
"V c #715ff3",
"Y c #735cf3",
"t c #745bf3",
"p c #7c50f2",
"L c #7c50f3",
"J c #7d4ef2",
"E c #7e4cf2",
"e c #7e4df2",
"P c #7e4ef2",
"x c #7f4bf2",
"0 c #8049f2",
"S c #8148f2",
"D c #8149f2",
"5 c #8246f1",
"F c #8247f2",
"f c #8346f1",
"o c #8346f2",
"a c #8543f2",
"M c #8640f1",
"B c #8642f2",
"s c #8740f1",
"R c #8741f1",
"6 c #883ff1",
"K c #893df1",
"r c #893ff1",
"G c #8a3cf1",
"j c #8a3df1",
"w c #8b3bf1",
"c c #8c39f1",
"W c #8d38f1",
"n c #8d39f1",
"3 c #8e36f0",
"N c #8e36f1",
"y c #8f35f1",
"g c #8f36f1",
"h c #9034f0",
"T c #9034f1",
"H c #9035f1",
"z c #9133f1",
"# c #9230f0",
"2 c #9231f0",
"O c #9232f1",
"m c #9330f0",
"4 c #942ef0",
"U c #942ff0",
"d c #952df0",
"X c #952ef0",
"i c #972bf0",
"Z c #9829f0",
"v c #982af0",
"b c #9928f0",
"k c #9b25f0",
"7 c #9e21f0",
"1 c #9e22f0",
"l c #9f20f0",
". c gold",
"................................",
"................................",
"...#a.bc.de..fg.bh.ijklm........",
"...no.mo.mp..qr.st.suvwx........",
"...so.yo.zp..Ar.Bt.BCvDE........",
"...Fo.Go.Hp..Ar.Bt.BIvJE........",
"...Fo.Ko.Hp..Ar.Bt.BIvLE........",
"...Mo.No.Op..Ar.Bt.BIvPE........",
"...co.mo.mp..Qr.Rt.RCvSE........",
"...To.Uo.Up..Vr.rt.ruvWx........",
"...mo.Xo.dJ..Yr.jt.GVvZ0........",
"...1k.k2.k3..c4.25.d6k7W........",
"................................",
"................................",
"................................",
"................................",
"................................",
"................................",
"................................",
"................................",
"................................",
"................................",
"................................",
"................................",
"................................",
"................................",
"................................",
"................................",
"................................",
"................................",
"................................",
"................................"};
