/* XPM */
static char *dummy[]={
"32 32 44 1",
"z c #676df5",
"x c #686cf5",
"C c #696af4",
"v c #6b67f4",
"F c #6e63f4",
"u c #7061f4",
"n c #715ff4",
"q c #745bf3",
"H c #745cf4",
"K c #7559f3",
"J c #7954f3",
"m c #7d4ff3",
"e c #7f4cf2",
"L c #8149f2",
"r c #8347f2",
"f c #8446f2",
"k c #8642f2",
"j c #883ff1",
"a c #883ff2",
"D c #8840f1",
"s c #8c39f1",
"i c #8c3af1",
"o c #8d3af1",
"A c #8e37f1",
"t c #8e38f1",
"c c #8f37f1",
"# c #9034f1",
"l c #9035f1",
"G c #9133f1",
"N c #9134f1",
"g c #9232f1",
"d c #9330f1",
"w c #942ff1",
"y c #9430f1",
"B c #962df0",
"b c #972bf0",
"O c #982af0",
"E c #9928f0",
"p c #9b26f0",
"I c #9c24f0",
"M c #9d23f0",
"h c #9e21f0",
"P c #9f20f0",
". c gold",
"................................",
"................................",
"...#a.bc.de..fghi...............",
"...jk.#k.lm..nopq...............",
"...rk.sk.tm..uobv...............",
"...ek.ak.im..uowx...............",
"...ek.ak.im..uoyz...............",
"...rk.ik.Am..uoBC...............",
"...Dk.lk.#m..noEF...............",
"...ik.Gk.Gm..HoIJ...............",
"...#k.gk.de..KohL...............",
"...Mp.pB.pg..NOPg...............",
"................................",
"................................",
"................................",
"................................",
"................................",
"................................",
"................................",
"................................",
"................................",
"................................",
"................................",
"................................",
"................................",
"................................",
"................................",
"................................",
"................................",
"................................",
"................................",
"................................"};
