/* XPM */
static char *dummy[]={
"16 16 35 1",
"p c #7d4ef2",
"w c #7e4df2",
"s c #7f4cf2",
"z c #8346f2",
"y c #8445f2",
"r c #8446f2",
"F c #8544f1",
"n c #8642f2",
"u c #8740f1",
"l c #883ff1",
"g c #893ef1",
"i c #8b3bf1",
"e c #8c3af1",
"d c #8e37f1",
"m c #8e38f1",
"b c #8f36f1",
"E c #9035f1",
"C c #9132f0",
"G c #9133f0",
"k c #9133f1",
"j c #9231f0",
"t c #9232f0",
"a c #9232f1",
"D c #9331f0",
"q c #9331f1",
"o c #942ff0",
"x c #9430f0",
"f c #962df0",
"B c #972af0",
"h c #972bf0",
"v c #9829f0",
"# c #982af0",
"c c #9a27f0",
"A c #9c24f0",
". c gold",
"................",
".#abcdefghib....",
".jkl#mnopqrs....",
".tkuvmnopqrw....",
".hkicmuowxyz....",
".ABCADEhF#iG....",
"................",
"................",
"................",
"................",
"................",
"................",
"................",
"................",
"................",
"................"};
