/* XPM */
static char *dummy[]={
"32 32 29 1",
"m c #745bf4",
"n c #745cf4",
"p c #7659f3",
"k c #7856f3",
"s c #7b52f3",
"l c #7f4cf2",
"h c #8149f2",
"i c #8347f2",
"u c #8445f2",
"g c #8642f2",
"f c #883ff1",
"a c #883ff2",
"q c #8840f1",
"j c #8c39f1",
"o c #8c3af1",
"e c #8f36f1",
"c c #8f37f1",
"# c #9034f1",
"r c #9035f1",
"t c #9133f1",
"v c #9232f1",
"A c #9331f1",
"d c #952ef0",
"y c #962df0",
"b c #972bf0",
"z c #9829f0",
"x c #9b26f0",
"w c #9d23f0",
". c gold",
"................................",
"................................",
"...#a.bc.de.....................",
"...fg.#g.hg.....................",
"...ig.jg.kg.....................",
"...lg.ag.mg.....................",
"...lg.ag.ng.....................",
"...ig.og.pg.....................",
"...qg.rg.sg.....................",
"...og.tg.ug.....................",
"...#g.vg.og.....................",
"...wx.xy.zA.....................",
"................................",
"................................",
"................................",
"................................",
"................................",
"................................",
"................................",
"................................",
"................................",
"................................",
"................................",
"................................",
"................................",
"................................",
"................................",
"................................",
"................................",
"................................",
"................................",
"................................"};
