/* XPM */
static char *dummy[]={
"16 16 22 1",
"h c #883ff2",
"k c #8840f2",
"p c #893ff2",
"n c #8b3bf1",
"d c #8d39f1",
"j c #8e37f1",
"b c #8f36f1",
"l c #9034f1",
"f c #9035f1",
"t c #9133f1",
"r c #9232f1",
"a c #9330f1",
"g c #9331f1",
"s c #942ff0",
"m c #952ef0",
"i c #962cf0",
"# c #962df0",
"e c #972bf0",
"o c #982af0",
"c c #9929f0",
"q c #9b25f0",
". c gold",
"................",
".#abcbde........",
".fghijk#........",
".lghijk#........",
".mgnojp#........",
".qorqstc........",
"................",
"................",
"................",
"................",
"................",
"................",
"................",
"................",
"................",
"................"};
