/* XPM */
static char *dummy[]={
"64 64 130 2",
".3 c #6174f5",
"#F c #6175f5",
"#b c #6176f5",
"#B c #6176f6",
".9 c #6177f6",
".P c #6273f5",
"#K c #6471f5",
"#I c #656ef4",
"## c #656ff4",
"#O c #656ff5",
"#j c #6570f5",
".S c #666df4",
".5 c #666ef4",
".V c #676bf4",
"#M c #676cf4",
"#S c #676df5",
"#e c #686bf4",
"#k c #686cf4",
".x c #6969f4",
"#T c #6a68f4",
"#4 c #6b65f3",
"#0 c #6b67f4",
"#5 c #6c65f4",
"#G c #6d63f3",
"#p c #6d63f4",
"#. c #6d64f4",
"#i c #6d65f4",
"#m c #6e62f3",
"#H c #6e63f3",
".R c #6f61f3",
".4 c #6f62f3",
".q c #6f62f4",
".Z c #715ef3",
"#L c #715ff3",
".t c #725df3",
"#X c #735bf3",
"#W c #735cf3",
"#Q c #735df3",
".7 c #745af3",
"#3 c #7558f3",
".a c #7559f3",
".C c #7657f3",
"a. c #7658f3",
"#8 c #7757f3",
".1 c #7854f2",
"#D c #7855f2",
".G c #7855f3",
"#t c #7954f3",
"#u c #7955f3",
".2 c #7a51f2",
".W c #7a52f2",
"#a c #7a53f3",
".Q c #7a54f3",
".y c #7b51f2",
"#z c #7b51f3",
"#q c #7c4ef2",
".M c #7c4ff2",
"#C c #7c50f2",
"#w c #7d4df2",
".K c #7d4ef2",
"#N c #7d4ff2",
".U c #7e4cf2",
".D c #7e4df2",
"#R c #7e4ef2",
"#r c #7f4af2",
".A c #7f4bf2",
".w c #8049f2",
".p c #8147f2",
".H c #8148f1",
"#h c #8148f2",
"#9 c #8149f2",
"#d c #8247f2",
"#J c #8345f1",
".8 c #8346f2",
".B c #8444f1",
"#A c #8444f2",
"#U c #8542f1",
".z c #8543f1",
"#E c #8641f1",
".N c #8740f1",
".O c #8741f1",
"#1 c #883ef1",
".F c #883ff1",
"#V c #893df1",
".u c #893ef1",
".v c #893ff1",
".# c #8a3bf1",
".g c #8a3cf1",
"#P c #8b3af1",
".s c #8b3bf1",
".i c #8c39f1",
".d c #8c3af1",
"a# c #8d37f1",
"#2 c #8d38f1",
".0 c #8d39f1",
".f c #8e37f1",
".j c #8e38f1",
".T c #9034f1",
".L c #9035f1",
"#6 c #9133f0",
"#7 c #9133f1",
".E c #9231f0",
"#Z c #942df0",
".Y c #942ef0",
"#o c #952cf0",
".h c #952df0",
"#v c #962af0",
"#x c #962cf0",
"#s c #962df0",
"#n c #972af0",
"#l c #972bf0",
".b c #9829f0",
".r c #982af0",
"#y c #9926f0",
"#c c #9927f0",
".c c #9928f0",
"#g c #9a25f0",
"#f c #9a26f0",
".n c #9a27f0",
".l c #9a28f0",
".k c #9b25f0",
".6 c #9c23f0",
".e c #9c24f0",
"#Y c #9d22f0",
".m c #9d23f0",
".o c #9d24f0",
".J c #9e21f0",
".X c #9e22f0",
".I c #9f20f0",
"Qt c gold",
"QtQtQtQtQtQtQtQtQtQtQtQtQtQtQtQtQtQtQtQtQtQtQtQtQtQtQtQtQtQtQtQtQtQtQtQtQtQtQtQtQtQtQtQtQtQtQtQtQtQtQtQtQtQtQtQtQtQtQtQtQtQtQtQt",
"QtQtQtQtQtQtQtQtQtQtQtQtQtQtQtQtQtQtQtQtQtQtQtQtQtQtQtQtQtQtQtQtQtQtQtQtQtQtQtQtQtQtQtQtQtQtQtQtQtQtQtQtQtQtQtQtQtQtQtQtQtQtQtQt",
"QtQtQtQtQtQtQtQtQtQtQtQtQtQtQtQtQtQtQtQtQtQtQtQtQtQtQtQtQtQtQtQtQtQtQtQtQtQtQtQtQtQtQtQtQtQtQtQtQtQtQtQtQtQtQtQtQtQtQtQtQtQtQtQt",
"QtQtQtQtQtQtQtQtQtQtQtQtQtQtQtQtQtQtQtQtQtQtQtQtQtQtQtQtQtQtQtQtQtQtQtQtQtQtQtQtQtQtQtQtQtQtQtQtQtQtQtQtQtQtQtQtQtQtQtQtQtQtQtQt",
"QtQtQtQtQtQtQt.#.a.bQtQtQt.c.d.eQtQtQt.f.a.gQtQtQtQt.h.i.j.eQtQtQtQtQtQtQtQtQt.k.c.l.mQtQt.e.n.l.nQtQtQt.c.oQtQtQtQtQtQtQtQtQtQt",
"QtQtQtQtQtQtQt.p.q.rQtQtQt.s.t.bQtQtQt.u.q.vQtQtQtQt.w.x.y.bQtQtQt.z.A.BQtQtQt.w.C.D.EQtQt.F.G.D.HQt.I.J.K.LQtQtQtQtQtQtQtQtQtQt",
"QtQtQtQtQtQtQt.M.q.rQtQtQt.N.q.rQtQtQt.O.q.vQtQtQtQt.y.P.Q.rQtQtQt.R.q.QQtQtQt.R.S.Q.TQtQt.U.V.W.DQt.X.Y.Z.0QtQtQtQtQtQtQtQtQtQt",
"QtQtQtQtQtQt.I.1.q.rQtQtQt.O.q.rQtQtQt.O.q.vQtQtQtQt.2.3.Q.rQtQtQt.4.q.QQtQtQt.4.5.Q.TQtQt.y.P.Q.KQt.e.d.x.sQtQtQtQtQtQtQtQtQtQt",
"QtQtQtQtQtQt.6.7.q.rQtQt.6.8.q.rQtQtQt.8.q.vQtQtQtQt.Q.9.Q.rQtQtQt#..q.QQtQtQt#.##.Q.TQtQt#a#b.Q.KQt#c#d#e.sQtQtQtQtQtQtQtQtQtQt",
"QtQtQtQtQtQt#f.Z.q.rQtQt#g#h.q.rQtQtQt#d.q.vQtQtQtQt.Q.9.Q.rQtQtQt#i.q.QQtQtQt#i#j.Q.TQtQt.Q.9.Q.KQt.b.D#k.sQtQtQtQtQtQtQtQtQtQt",
"QtQtQtQtQtQt#l#m.q.rQtQt#n.D.q.rQtQtQt.w.q.vQtQtQtQt.Q.9.Q.rQtQtQt#i.q.QQtQtQt#i#j.Q.TQtQt.Q.9.Q.KQt#n.M#k.sQtQtQtQtQtQtQtQtQtQt",
"QtQtQtQtQtQt#o#p.q.rQtQt#o#q.q.rQtQtQt#r.q.vQtQtQtQt.Q.9.Q.rQtQtQt#i.q.QQtQtQt#i#j.Q.TQtQt.Q.9.Q.KQt#s#t#k.sQtQtQtQtQtQtQtQtQtQt",
"QtQtQtQtQtQt#o#..q.rQtQt.h.M.q.rQtQtQt.A.q.vQtQtQtQt.Q.9.Q.rQtQtQt#i.q.QQtQtQt#i#j.Q.TQtQt.Q.9.Q.KQt#s#u#k.sQtQtQtQtQtQtQtQtQtQt",
"QtQtQtQtQtQt#n#m.q.rQtQt#v#w.q.rQtQtQt.w.q.vQtQtQtQt.Q.9.Q.rQtQtQt#i.q.QQtQtQt#i#j.Q.TQtQt.Q.9.Q.KQt#x#a#k.sQtQtQtQtQtQtQtQtQtQt",
"QtQtQtQtQtQt#y.Z.q.rQtQt#y.w.q.rQtQtQt.8.q.vQtQtQtQt.Q.9.Q.rQtQtQt#i.q.QQtQtQt#i#j.Q.TQtQt.Q.9.Q.KQt#l#z#k.sQtQtQtQtQtQtQtQtQtQt",
"QtQtQtQtQtQt.6.7.q.rQtQt.e#d.q.rQtQtQt#A.q.vQtQtQtQt#a#B.Q.rQtQtQt#i.q.QQtQtQt#i#j.Q.TQtQt.Q.9.Q.KQt#l#C#k.sQtQtQtQtQtQtQtQtQtQt",
"QtQtQtQtQtQt.I#D.q.rQtQt.I#E.q.rQtQtQt.O.q.vQtQtQtQt.W#F.Q.rQtQtQt#G.q.QQtQtQt#G##.Q.TQtQt.W#F.Q.KQt.n#d#e.sQtQtQtQtQtQtQtQtQtQt",
"QtQtQtQtQtQtQt.y.q.rQtQtQt.O.q.rQtQtQt.O.q.vQtQtQtQt.2.3.Q.rQtQtQt#H.q.QQtQtQt#H#I.Q.TQtQt.W.3.Q.KQt#f#J#e.sQtQtQtQtQtQtQtQtQtQt",
"QtQtQtQtQtQtQt.A.q.rQtQtQt.F.q.rQtQtQt.u.q.vQtQtQtQt.K#K.Q.rQtQtQt#L.q.QQtQtQt#L#M.Q.TQtQt#N#O.Q.KQt.e#P.x.sQtQtQtQtQtQtQtQtQtQt",
"QtQtQtQtQtQtQt.p.q.rQtQtQt.u.q.rQtQtQt.u.q.vQtQtQtQt.D#j.Q.rQtQtQt#Q.q.QQtQtQt#Q#e.Q.TQtQt#R#S.Q.KQt.m.T#T.sQtQtQtQtQtQtQtQtQtQt",
"QtQtQtQtQtQtQt#U.q.rQtQtQt#V.q.rQtQtQt.g.q.vQtQtQtQt.A.5.Q.rQtQtQt#W.q.QQtQtQt#X#e.Q.TQtQt.U.V.Q.KQt#Y#Z#0.sQtQtQtQtQtQtQtQtQtQt",
"QtQtQtQtQtQtQt#1.q.rQtQtQt.g.q.rQtQtQt#2#X.gQtQtQtQt.w#M.Q.rQtQtQt#3.q.QQtQtQt.C.x.Q.TQtQt#h#4.W.DQt.I.6#5.sQtQtQtQtQtQtQtQtQtQt",
"QtQtQtQtQtQtQt.c#6.mQtQtQt#7.W.cQtQtQt#7.W#2QtQtQtQt#V#8#9.cQtQtQt.Ka..DQtQtQt.K.t.D.EQtQt#U#X.D.HQt.I#Y#5.sQtQtQtQtQtQtQtQtQtQt",
"QtQtQtQtQtQtQtQtQtQtQtQtQt.o.b.JQtQtQt.o.b.eQtQtQtQt.k#l.c.JQtQtQta##V#2QtQtQt.n#n.c.mQtQt.k.r.c.nQt.I.I.h.kQtQtQtQtQtQtQtQtQtQt",
"QtQtQtQtQtQtQtQtQtQtQtQtQtQtQtQtQtQtQtQtQtQtQtQtQtQtQtQtQtQtQtQtQtQtQtQtQtQtQtQtQtQtQtQtQtQtQtQtQtQtQtQtQtQtQtQtQtQtQtQtQtQtQtQt",
"QtQtQtQtQtQtQtQtQtQtQtQtQtQtQtQtQtQtQtQtQtQtQtQtQtQtQtQtQtQtQtQtQtQtQtQtQtQtQtQtQtQtQtQtQtQtQtQtQtQtQtQtQtQtQtQtQtQtQtQtQtQtQtQt",
"QtQtQtQtQtQtQtQtQtQtQtQtQtQtQtQtQtQtQtQtQtQtQtQtQtQtQtQtQtQtQtQtQtQtQtQtQtQtQtQtQtQtQtQtQtQtQtQtQtQtQtQtQtQtQtQtQtQtQtQtQtQtQtQt",
"QtQtQtQtQtQtQtQtQtQtQtQtQtQtQtQtQtQtQtQtQtQtQtQtQtQtQtQtQtQtQtQtQtQtQtQtQtQtQtQtQtQtQtQtQtQtQtQtQtQtQtQtQtQtQtQtQtQtQtQtQtQtQtQt",
"QtQtQtQtQtQtQtQtQtQtQtQtQtQtQtQtQtQtQtQtQtQtQtQtQtQtQtQtQtQtQtQtQtQtQtQtQtQtQtQtQtQtQtQtQtQtQtQtQtQtQtQtQtQtQtQtQtQtQtQtQtQtQtQt",
"QtQtQtQtQtQtQtQtQtQtQtQtQtQtQtQtQtQtQtQtQtQtQtQtQtQtQtQtQtQtQtQtQtQtQtQtQtQtQtQtQtQtQtQtQtQtQtQtQtQtQtQtQtQtQtQtQtQtQtQtQtQtQtQt",
"QtQtQtQtQtQtQtQtQtQtQtQtQtQtQtQtQtQtQtQtQtQtQtQtQtQtQtQtQtQtQtQtQtQtQtQtQtQtQtQtQtQtQtQtQtQtQtQtQtQtQtQtQtQtQtQtQtQtQtQtQtQtQtQt",
"QtQtQtQtQtQtQtQtQtQtQtQtQtQtQtQtQtQtQtQtQtQtQtQtQtQtQtQtQtQtQtQtQtQtQtQtQtQtQtQtQtQtQtQtQtQtQtQtQtQtQtQtQtQtQtQtQtQtQtQtQtQtQtQt",
"QtQtQtQtQtQtQtQtQtQtQtQtQtQtQtQtQtQtQtQtQtQtQtQtQtQtQtQtQtQtQtQtQtQtQtQtQtQtQtQtQtQtQtQtQtQtQtQtQtQtQtQtQtQtQtQtQtQtQtQtQtQtQtQt",
"QtQtQtQtQtQtQtQtQtQtQtQtQtQtQtQtQtQtQtQtQtQtQtQtQtQtQtQtQtQtQtQtQtQtQtQtQtQtQtQtQtQtQtQtQtQtQtQtQtQtQtQtQtQtQtQtQtQtQtQtQtQtQtQt",
"QtQtQtQtQtQtQtQtQtQtQtQtQtQtQtQtQtQtQtQtQtQtQtQtQtQtQtQtQtQtQtQtQtQtQtQtQtQtQtQtQtQtQtQtQtQtQtQtQtQtQtQtQtQtQtQtQtQtQtQtQtQtQtQt",
"QtQtQtQtQtQtQtQtQtQtQtQtQtQtQtQtQtQtQtQtQtQtQtQtQtQtQtQtQtQtQtQtQtQtQtQtQtQtQtQtQtQtQtQtQtQtQtQtQtQtQtQtQtQtQtQtQtQtQtQtQtQtQtQt",
"QtQtQtQtQtQtQtQtQtQtQtQtQtQtQtQtQtQtQtQtQtQtQtQtQtQtQtQtQtQtQtQtQtQtQtQtQtQtQtQtQtQtQtQtQtQtQtQtQtQtQtQtQtQtQtQtQtQtQtQtQtQtQtQt",
"QtQtQtQtQtQtQtQtQtQtQtQtQtQtQtQtQtQtQtQtQtQtQtQtQtQtQtQtQtQtQtQtQtQtQtQtQtQtQtQtQtQtQtQtQtQtQtQtQtQtQtQtQtQtQtQtQtQtQtQtQtQtQtQt",
"QtQtQtQtQtQtQtQtQtQtQtQtQtQtQtQtQtQtQtQtQtQtQtQtQtQtQtQtQtQtQtQtQtQtQtQtQtQtQtQtQtQtQtQtQtQtQtQtQtQtQtQtQtQtQtQtQtQtQtQtQtQtQtQt",
"QtQtQtQtQtQtQtQtQtQtQtQtQtQtQtQtQtQtQtQtQtQtQtQtQtQtQtQtQtQtQtQtQtQtQtQtQtQtQtQtQtQtQtQtQtQtQtQtQtQtQtQtQtQtQtQtQtQtQtQtQtQtQtQt",
"QtQtQtQtQtQtQtQtQtQtQtQtQtQtQtQtQtQtQtQtQtQtQtQtQtQtQtQtQtQtQtQtQtQtQtQtQtQtQtQtQtQtQtQtQtQtQtQtQtQtQtQtQtQtQtQtQtQtQtQtQtQtQtQt",
"QtQtQtQtQtQtQtQtQtQtQtQtQtQtQtQtQtQtQtQtQtQtQtQtQtQtQtQtQtQtQtQtQtQtQtQtQtQtQtQtQtQtQtQtQtQtQtQtQtQtQtQtQtQtQtQtQtQtQtQtQtQtQtQt",
"QtQtQtQtQtQtQtQtQtQtQtQtQtQtQtQtQtQtQtQtQtQtQtQtQtQtQtQtQtQtQtQtQtQtQtQtQtQtQtQtQtQtQtQtQtQtQtQtQtQtQtQtQtQtQtQtQtQtQtQtQtQtQtQt",
"QtQtQtQtQtQtQtQtQtQtQtQtQtQtQtQtQtQtQtQtQtQtQtQtQtQtQtQtQtQtQtQtQtQtQtQtQtQtQtQtQtQtQtQtQtQtQtQtQtQtQtQtQtQtQtQtQtQtQtQtQtQtQtQt",
"QtQtQtQtQtQtQtQtQtQtQtQtQtQtQtQtQtQtQtQtQtQtQtQtQtQtQtQtQtQtQtQtQtQtQtQtQtQtQtQtQtQtQtQtQtQtQtQtQtQtQtQtQtQtQtQtQtQtQtQtQtQtQtQt",
"QtQtQtQtQtQtQtQtQtQtQtQtQtQtQtQtQtQtQtQtQtQtQtQtQtQtQtQtQtQtQtQtQtQtQtQtQtQtQtQtQtQtQtQtQtQtQtQtQtQtQtQtQtQtQtQtQtQtQtQtQtQtQtQt",
"QtQtQtQtQtQtQtQtQtQtQtQtQtQtQtQtQtQtQtQtQtQtQtQtQtQtQtQtQtQtQtQtQtQtQtQtQtQtQtQtQtQtQtQtQtQtQtQtQtQtQtQtQtQtQtQtQtQtQtQtQtQtQtQt",
"QtQtQtQtQtQtQtQtQtQtQtQtQtQtQtQtQtQtQtQtQtQtQtQtQtQtQtQtQtQtQtQtQtQtQtQtQtQtQtQtQtQtQtQtQtQtQtQtQtQtQtQtQtQtQtQtQtQtQtQtQtQtQtQt",
"QtQtQtQtQtQtQtQtQtQtQtQtQtQtQtQtQtQtQtQtQtQtQtQtQtQtQtQtQtQtQtQtQtQtQtQtQtQtQtQtQtQtQtQtQtQtQtQtQtQtQtQtQtQtQtQtQtQtQtQtQtQtQtQt",
"QtQtQtQtQtQtQtQtQtQtQtQtQtQtQtQtQtQtQtQtQtQtQtQtQtQtQtQtQtQtQtQtQtQtQtQtQtQtQtQtQtQtQtQtQtQtQtQtQtQtQtQtQtQtQtQtQtQtQtQtQtQtQtQt",
"QtQtQtQtQtQtQtQtQtQtQtQtQtQtQtQtQtQtQtQtQtQtQtQtQtQtQtQtQtQtQtQtQtQtQtQtQtQtQtQtQtQtQtQtQtQtQtQtQtQtQtQtQtQtQtQtQtQtQtQtQtQtQtQt",
"QtQtQtQtQtQtQtQtQtQtQtQtQtQtQtQtQtQtQtQtQtQtQtQtQtQtQtQtQtQtQtQtQtQtQtQtQtQtQtQtQtQtQtQtQtQtQtQtQtQtQtQtQtQtQtQtQtQtQtQtQtQtQtQt",
"QtQtQtQtQtQtQtQtQtQtQtQtQtQtQtQtQtQtQtQtQtQtQtQtQtQtQtQtQtQtQtQtQtQtQtQtQtQtQtQtQtQtQtQtQtQtQtQtQtQtQtQtQtQtQtQtQtQtQtQtQtQtQtQt",
"QtQtQtQtQtQtQtQtQtQtQtQtQtQtQtQtQtQtQtQtQtQtQtQtQtQtQtQtQtQtQtQtQtQtQtQtQtQtQtQtQtQtQtQtQtQtQtQtQtQtQtQtQtQtQtQtQtQtQtQtQtQtQtQt",
"QtQtQtQtQtQtQtQtQtQtQtQtQtQtQtQtQtQtQtQtQtQtQtQtQtQtQtQtQtQtQtQtQtQtQtQtQtQtQtQtQtQtQtQtQtQtQtQtQtQtQtQtQtQtQtQtQtQtQtQtQtQtQtQt",
"QtQtQtQtQtQtQtQtQtQtQtQtQtQtQtQtQtQtQtQtQtQtQtQtQtQtQtQtQtQtQtQtQtQtQtQtQtQtQtQtQtQtQtQtQtQtQtQtQtQtQtQtQtQtQtQtQtQtQtQtQtQtQtQt",
"QtQtQtQtQtQtQtQtQtQtQtQtQtQtQtQtQtQtQtQtQtQtQtQtQtQtQtQtQtQtQtQtQtQtQtQtQtQtQtQtQtQtQtQtQtQtQtQtQtQtQtQtQtQtQtQtQtQtQtQtQtQtQtQt",
"QtQtQtQtQtQtQtQtQtQtQtQtQtQtQtQtQtQtQtQtQtQtQtQtQtQtQtQtQtQtQtQtQtQtQtQtQtQtQtQtQtQtQtQtQtQtQtQtQtQtQtQtQtQtQtQtQtQtQtQtQtQtQtQt",
"QtQtQtQtQtQtQtQtQtQtQtQtQtQtQtQtQtQtQtQtQtQtQtQtQtQtQtQtQtQtQtQtQtQtQtQtQtQtQtQtQtQtQtQtQtQtQtQtQtQtQtQtQtQtQtQtQtQtQtQtQtQtQtQt",
"QtQtQtQtQtQtQtQtQtQtQtQtQtQtQtQtQtQtQtQtQtQtQtQtQtQtQtQtQtQtQtQtQtQtQtQtQtQtQtQtQtQtQtQtQtQtQtQtQtQtQtQtQtQtQtQtQtQtQtQtQtQtQtQt",
"QtQtQtQtQtQtQtQtQtQtQtQtQtQtQtQtQtQtQtQtQtQtQtQtQtQtQtQtQtQtQtQtQtQtQtQtQtQtQtQtQtQtQtQtQtQtQtQtQtQtQtQtQtQtQtQtQtQtQtQtQtQtQtQt",
"QtQtQtQtQtQtQtQtQtQtQtQtQtQtQtQtQtQtQtQtQtQtQtQtQtQtQtQtQtQtQtQtQtQtQtQtQtQtQtQtQtQtQtQtQtQtQtQtQtQtQtQtQtQtQtQtQtQtQtQtQtQtQtQt",
"QtQtQtQtQtQtQtQtQtQtQtQtQtQtQtQtQtQtQtQtQtQtQtQtQtQtQtQtQtQtQtQtQtQtQtQtQtQtQtQtQtQtQtQtQtQtQtQtQtQtQtQtQtQtQtQtQtQtQtQtQtQtQtQt",
"QtQtQtQtQtQtQtQtQtQtQtQtQtQtQtQtQtQtQtQtQtQtQtQtQtQtQtQtQtQtQtQtQtQtQtQtQtQtQtQtQtQtQtQtQtQtQtQtQtQtQtQtQtQtQtQtQtQtQtQtQtQtQtQt"};
