/* XPM */
static char *dummy[]={
"32 32 44 1",
"w c #7061f4",
"p c #715ff4",
"r c #735cf3",
"C c #745cf4",
"J c #7559f3",
"B c #755af3",
"y c #7954f3",
"G c #7a53f3",
"o c #7d4ff3",
"e c #7f4cf2",
"x c #804bf2",
"A c #804bf3",
"q c #8149f2",
"F c #814af2",
"s c #8248f2",
"I c #8346f2",
"t c #8347f2",
"f c #8446f2",
"K c #8544f2",
"m c #8642f2",
"l c #883ff1",
"a c #883ff2",
"E c #8840f1",
"u c #8c39f1",
"z c #8c3af1",
"i c #8d3af1",
"D c #8e37f1",
"v c #8e38f1",
"c c #8f37f1",
"# c #9034f1",
"n c #9035f1",
"H c #9133f1",
"N c #9134f1",
"g c #9232f1",
"d c #9330f1",
"P c #942ef0",
"h c #952ef0",
"k c #962df0",
"b c #972bf0",
"O c #982af0",
"M c #9b26f0",
"j c #9c25f0",
"L c #9d23f0",
". c gold",
"................................",
"................................",
"...#a.bc.de..fg.hi.jk...........",
"...lm.#m.no..pi.qr.sm...........",
"...tm.um.vo..wi.xr.ym...........",
"...em.am.zo..wi.Ar.Bm...........",
"...em.am.zo..wi.Ar.Cm...........",
"...tm.zm.Do..wi.Ar.Bm...........",
"...Em.nm.#o..pi.Fr.Gm...........",
"...zm.Hm.Ho..Ci.tr.Im...........",
"...#m.gm.de..Ji.Kr.zm...........",
"...LM.Mk.Mg..NO.nI.Pu...........",
"................................",
"................................",
"................................",
"................................",
"................................",
"................................",
"................................",
"................................",
"................................",
"................................",
"................................",
"................................",
"................................",
"................................",
"................................",
"................................",
"................................",
"................................",
"................................",
"................................"};
