/* XPM */
static char *dummy[]={
"32 32 67 2",
".T c #6d64f4",
".F c #6d65f4",
".s c #6e62f3",
".R c #6e63f3",
".z c #6f61f3",
".K c #6f62f4",
".w c #7060f3",
".Y c #7061f4",
".3 c #715df3",
".X c #715ff3",
".2 c #735cf3",
".v c #745bf3",
".H c #7953f2",
".Z c #7a52f2",
".5 c #7b50f2",
".C c #7c4ef2",
".r c #7c50f2",
".1 c #7d4ef2",
".e c #7e4df2",
".9 c #8246f1",
".I c #8247f2",
".f c #8346f1",
".p c #8346f2",
".a c #8543f2",
".O c #8640f1",
".G c #8642f2",
".u c #8740f1",
".S c #8741f1",
".M c #883ef1",
"#. c #883ff1",
".N c #893df1",
".Q c #893ef1",
".t c #893ff1",
".l c #8a3cf1",
".j c #8a3df1",
".c c #8c39f1",
".o c #8d39f1",
".L c #8d3af1",
".U c #8e36f0",
".A c #8e36f1",
".y c #8e37f1",
".D c #8f35f1",
".g c #8f36f1",
".h c #9034f0",
".V c #9034f1",
".J c #9035f1",
".E c #9133f1",
".n c #9134f0",
".# c #9230f0",
".7 c #9231f0",
".P c #9232f1",
".q c #9330f0",
".8 c #942ef0",
".W c #942ff0",
".d c #952df0",
".0 c #952ef0",
".B c #962bf0",
".i c #972bf0",
"## c #9829f0",
".x c #982af0",
".b c #9928f0",
".4 c #9b24f0",
".k c #9b25f0",
"#a c #9e20f0",
".6 c #9e22f0",
".m c #9f20f0",
"Qt c gold",
"QtQtQtQtQtQtQtQtQtQtQtQtQtQtQtQtQtQtQtQtQtQtQtQtQtQtQtQtQtQtQtQt",
"QtQtQtQtQtQtQtQtQtQtQtQtQtQtQtQtQtQtQtQtQtQtQtQtQtQtQtQtQtQtQtQt",
"QtQtQt.#.aQt.b.cQt.d.eQtQt.f.gQt.b.hQt.i.j.k.b.l.i.m.nQtQtQtQtQt",
"QtQtQt.o.pQt.q.pQt.q.rQtQt.s.tQt.u.vQt.u.w.x.y.z.A.B.CQtQtQtQtQt",
"QtQtQt.u.pQt.D.pQt.E.rQtQt.F.tQt.G.vQt.G.z.x.o.F.y.c.HQtQtQtQtQt",
"QtQtQt.I.pQt.l.pQt.J.rQtQt.F.tQt.G.vQt.G.K.x.L.F.y.M.HQtQtQtQtQt",
"QtQtQt.I.pQt.N.pQt.J.rQtQt.F.tQt.G.vQt.G.K.x.L.F.y.u.HQtQtQtQtQt",
"QtQtQt.O.pQt.A.pQt.P.rQtQt.F.tQt.G.vQt.G.K.x.L.F.y.Q.HQtQtQtQtQt",
"QtQtQt.c.pQt.q.pQt.q.rQtQt.R.tQt.S.vQt.S.z.x.o.T.y.U.HQtQtQtQtQt",
"QtQtQt.V.pQt.W.pQt.W.rQtQt.X.tQt.t.vQt.t.w.x.y.Y.y.d.ZQtQtQtQtQt",
"QtQtQt.q.pQt.0.pQt.d.1QtQt.2.tQt.j.vQt.l.X.x.D.3.A.4.5QtQtQtQtQt",
"QtQtQt.6.kQt.k.7Qt.k.UQtQt.c.8Qt.7.9Qt.d#..k##.M.B#a.lQtQtQtQtQt",
"QtQtQtQtQtQtQtQtQtQtQtQtQtQtQtQtQtQtQtQtQtQtQtQtQtQtQtQtQtQtQtQt",
"QtQtQtQtQtQtQtQtQtQtQtQtQtQtQtQtQtQtQtQtQtQtQtQtQtQtQtQtQtQtQtQt",
"QtQtQtQtQtQtQtQtQtQtQtQtQtQtQtQtQtQtQtQtQtQtQtQtQtQtQtQtQtQtQtQt",
"QtQtQtQtQtQtQtQtQtQtQtQtQtQtQtQtQtQtQtQtQtQtQtQtQtQtQtQtQtQtQtQt",
"QtQtQtQtQtQtQtQtQtQtQtQtQtQtQtQtQtQtQtQtQtQtQtQtQtQtQtQtQtQtQtQt",
"QtQtQtQtQtQtQtQtQtQtQtQtQtQtQtQtQtQtQtQtQtQtQtQtQtQtQtQtQtQtQtQt",
"QtQtQtQtQtQtQtQtQtQtQtQtQtQtQtQtQtQtQtQtQtQtQtQtQtQtQtQtQtQtQtQt",
"QtQtQtQtQtQtQtQtQtQtQtQtQtQtQtQtQtQtQtQtQtQtQtQtQtQtQtQtQtQtQtQt",
"QtQtQtQtQtQtQtQtQtQtQtQtQtQtQtQtQtQtQtQtQtQtQtQtQtQtQtQtQtQtQtQt",
"QtQtQtQtQtQtQtQtQtQtQtQtQtQtQtQtQtQtQtQtQtQtQtQtQtQtQtQtQtQtQtQt",
"QtQtQtQtQtQtQtQtQtQtQtQtQtQtQtQtQtQtQtQtQtQtQtQtQtQtQtQtQtQtQtQt",
"QtQtQtQtQtQtQtQtQtQtQtQtQtQtQtQtQtQtQtQtQtQtQtQtQtQtQtQtQtQtQtQt",
"QtQtQtQtQtQtQtQtQtQtQtQtQtQtQtQtQtQtQtQtQtQtQtQtQtQtQtQtQtQtQtQt",
"QtQtQtQtQtQtQtQtQtQtQtQtQtQtQtQtQtQtQtQtQtQtQtQtQtQtQtQtQtQtQtQt",
"QtQtQtQtQtQtQtQtQtQtQtQtQtQtQtQtQtQtQtQtQtQtQtQtQtQtQtQtQtQtQtQt",
"QtQtQtQtQtQtQtQtQtQtQtQtQtQtQtQtQtQtQtQtQtQtQtQtQtQtQtQtQtQtQtQt",
"QtQtQtQtQtQtQtQtQtQtQtQtQtQtQtQtQtQtQtQtQtQtQtQtQtQtQtQtQtQtQtQt",
"QtQtQtQtQtQtQtQtQtQtQtQtQtQtQtQtQtQtQtQtQtQtQtQtQtQtQtQtQtQtQtQt",
"QtQtQtQtQtQtQtQtQtQtQtQtQtQtQtQtQtQtQtQtQtQtQtQtQtQtQtQtQtQtQtQt",
"QtQtQtQtQtQtQtQtQtQtQtQtQtQtQtQtQtQtQtQtQtQtQtQtQtQtQtQtQtQtQtQt"};
