/* XPM */
static char *dummy[]={
"8 8 6 1",
"b c #8b3bf1",
"d c #9232f1",
"# c #982af0",
"c c #9c25f0",
". c #9d23f0",
"a c #a020f0",
".#aaaaaa",
"#baaaaaa",
"cdaaaaaa",
"aaaaaaaa",
"aaaaaaaa",
"aaaaaaaa",
"aaaaaaaa",
"aaaaaaaa"};
