/* XPM */
static char *dummy[]={
"16 16 19 1",
"g c #883ff2",
"j c #8a3df1",
"k c #8b3bf1",
"h c #8b3cf1",
"l c #8f35f1",
"b c #8f36f1",
"i c #9034f1",
"e c #9035f1",
"o c #9232f1",
"a c #9330f1",
"f c #9331f1",
"c c #952df0",
"d c #952ef0",
"q c #962cf0",
"# c #962df0",
"n c #982af0",
"p c #9928f0",
"m c #9b25f0",
". c #a020f0",
"................",
".#abcd..........",
".efghf..........",
".ifgjf..........",
".dfklf..........",
".mnopq..........",
"................",
"................",
"................",
"................",
"................",
"................",
"................",
"................",
"................",
"................"};
