/* XPM */
static char *dummy[]={
"64 64 115 2",
".S c #6174f5",
"#w c #6175f5",
"#s c #6176f6",
".Z c #6177f6",
".K c #6273f5",
"#k c #6372f5",
"#m c #6373f5",
"#q c #6471f5",
"#A c #656ef4",
".1 c #656ff4",
"## c #6570f5",
".N c #666df4",
".U c #666ef4",
"#a c #666ff5",
"#E c #676cf4",
"#y c #676cf5",
".4 c #686bf4",
"#b c #686cf4",
".w c #6969f4",
"#B c #6a68f4",
".3 c #6b67f4",
"#N c #6c65f4",
"#x c #6d63f3",
"#g c #6d63f4",
".0 c #6d64f4",
"#. c #6d65f4",
"#d c #6e62f3",
"#z c #6e63f3",
".M c #6f61f3",
".T c #6f62f3",
".p c #6f62f4",
".6 c #715ef3",
"#D c #715ff3",
".s c #725df3",
"#J c #735bf3",
"#I c #735cf3",
"#F c #735df3",
".X c #745af3",
"#M c #7558f3",
".a c #7559f3",
".B c #7657f3",
"#S c #7658f3",
"#Q c #7757f3",
".Q c #7854f2",
"#t c #7855f2",
".R c #7a51f2",
"#v c #7a52f2",
".V c #7a53f3",
".L c #7a54f3",
".x c #7b51f2",
".P c #7b52f3",
"#h c #7c4ef2",
".H c #7c4ff2",
"#o c #7d4df2",
".G c #7d4ef2",
".C c #7e4df2",
"#i c #7f4af2",
".z c #7f4bf2",
".v c #8049f2",
".o c #8147f2",
".8 c #8148f2",
"#R c #8149f2",
".9 c #8247f2",
".Y c #8346f2",
".A c #8444f1",
"#r c #8444f2",
"#G c #8542f1",
".y c #8543f1",
"#u c #8641f1",
".I c #8740f1",
".J c #8741f1",
"#K c #883ef1",
"#C c #883ff1",
"#H c #893df1",
".t c #893ef1",
".u c #893ff1",
".# c #8a3bf1",
".g c #8a3cf1",
".r c #8b3bf1",
".i c #8c39f1",
".d c #8c3af1",
"#V c #8d37f1",
"#L c #8d38f1",
".f c #8e37f1",
".j c #8e38f1",
".O c #9034f1",
"#O c #9133f0",
"#P c #9133f1",
".D c #9231f0",
"#f c #952cf0",
".h c #952df0",
"#n c #962af0",
"#j c #962cf0",
"#l c #962df0",
"#e c #972af0",
"#c c #972bf0",
".b c #9829f0",
".q c #982af0",
"#p c #9926f0",
".c c #9928f0",
".7 c #9a25f0",
".5 c #9a26f0",
".2 c #9a27f0",
".l c #9a28f0",
".k c #9b25f0",
".W c #9c23f0",
".e c #9c24f0",
".F c #9d22f0",
".m c #9d23f0",
"#T c #9d24f0",
"#W c #9e20f0",
"#U c #9e21f0",
".n c #9e22f0",
".E c #9f20f0",
"Qt c #a020f0",
"QtQtQtQtQtQtQtQtQtQtQtQtQtQtQtQtQtQtQtQtQtQtQtQtQtQtQtQtQtQtQtQtQtQtQtQtQtQtQtQtQtQtQtQtQtQtQtQtQtQtQtQtQtQtQtQtQtQtQtQtQtQtQtQt",
"QtQtQtQtQtQtQtQtQtQtQtQtQtQtQtQtQtQtQtQtQtQtQtQtQtQtQtQtQtQtQtQtQtQtQtQtQtQtQtQtQtQtQtQtQtQtQtQtQtQtQtQtQtQtQtQtQtQtQtQtQtQtQtQt",
"QtQtQtQtQtQtQtQtQtQtQtQtQtQtQtQtQtQtQtQtQtQtQtQtQtQtQtQtQtQtQtQtQtQtQtQtQtQtQtQtQtQtQtQtQtQtQtQtQtQtQtQtQtQtQtQtQtQtQtQtQtQtQtQt",
"QtQtQtQtQtQtQtQtQtQtQtQtQtQtQtQtQtQtQtQtQtQtQtQtQtQtQtQtQtQtQtQtQtQtQtQtQtQtQtQtQtQtQtQtQtQtQtQtQtQtQtQtQtQtQtQtQtQtQtQtQtQtQtQt",
"QtQtQtQtQtQtQt.#.a.bQtQtQt.c.d.eQtQtQt.f.a.gQtQtQtQt.h.i.j.eQtQtQtQtQtQtQtQtQt.k.c.l.mQtQtQt.c.nQtQtQtQtQtQtQtQtQtQtQtQtQtQtQtQt",
"QtQtQtQtQtQtQt.o.p.qQtQtQt.r.s.bQtQtQt.t.p.uQtQtQtQt.v.w.x.bQtQtQt.y.z.AQtQtQt.v.B.C.DQt.E.F.G.qQtQtQtQtQtQtQtQtQtQtQtQtQtQtQtQt",
"QtQtQtQtQtQtQt.H.p.qQtQtQt.I.p.qQtQtQt.J.p.uQtQtQtQt.x.K.L.qQtQtQt.M.p.LQtQtQt.M.N.L.OQt.e.P.w.hQtQtQtQtQtQtQtQtQtQtQtQtQtQtQtQt",
"QtQtQtQtQtQt.E.Q.p.qQtQtQt.J.p.qQtQtQt.J.p.uQtQtQtQt.R.S.L.qQtQtQt.T.p.LQtQtQt.T.U.L.OQt.e.V.w.hQtQtQtQtQtQtQtQtQtQtQtQtQtQtQtQt",
"QtQtQtQtQtQt.W.X.p.qQtQt.W.Y.p.qQtQtQt.Y.p.uQtQtQtQt.L.Z.L.qQtQtQt.0.p.LQtQtQt.0.1.L.OQt.2.3.4.hQtQtQtQtQtQtQtQtQtQtQtQtQtQtQtQt",
"QtQtQtQtQtQt.5.6.p.qQtQt.7.8.p.qQtQtQt.9.p.uQtQtQtQt.L.Z.L.qQtQtQt#..p.LQtQtQt#.##.L.OQt.b#a#b.hQtQtQtQtQtQtQtQtQtQtQtQtQtQtQtQt",
"QtQtQtQtQtQt#c#d.p.qQtQt#e.C.p.qQtQtQt.v.p.uQtQtQtQt.L.Z.L.qQtQtQt#..p.LQtQtQt#.##.L.OQt#e###b.hQtQtQtQtQtQtQtQtQtQtQtQtQtQtQtQt",
"QtQtQtQtQtQt#f#g.p.qQtQt#f#h.p.qQtQtQt#i.p.uQtQtQtQt.L.Z.L.qQtQtQt#..p.LQtQtQt#.##.L.OQt#j#k#b.hQtQtQtQtQtQtQtQtQtQtQtQtQtQtQtQt",
"QtQtQtQtQtQt#f.0.p.qQtQt.h.H.p.qQtQtQt.z.p.uQtQtQtQt.L.Z.L.qQtQtQt#..p.LQtQtQt#.##.L.OQt#l#m#b.hQtQtQtQtQtQtQtQtQtQtQtQtQtQtQtQt",
"QtQtQtQtQtQt#e#d.p.qQtQt#n#o.p.qQtQtQt.v.p.uQtQtQtQt.L.Z.L.qQtQtQt#..p.LQtQtQt#.##.L.OQt#l#k#b.hQtQtQtQtQtQtQtQtQtQtQtQtQtQtQtQt",
"QtQtQtQtQtQt#p.6.p.qQtQt#p.v.p.qQtQtQt.Y.p.uQtQtQtQt.L.Z.L.qQtQtQt#..p.LQtQtQt#.##.L.OQt#c#q#b.hQtQtQtQtQtQtQtQtQtQtQtQtQtQtQtQt",
"QtQtQtQtQtQt.W.X.p.qQtQt.e.9.p.qQtQtQt#r.p.uQtQtQtQt.V#s.L.qQtQtQt#..p.LQtQtQt#.##.L.OQt#c###b.hQtQtQtQtQtQtQtQtQtQtQtQtQtQtQtQt",
"QtQtQtQtQtQt.E#t.p.qQtQt.E#u.p.qQtQtQt.J.p.uQtQtQtQt#v#w.L.qQtQtQt#x.p.LQtQtQt#x.1.L.OQt.2#y.4.hQtQtQtQtQtQtQtQtQtQtQtQtQtQtQtQt",
"QtQtQtQtQtQtQt.x.p.qQtQtQt.J.p.qQtQtQt.J.p.uQtQtQtQt.R.S.L.qQtQtQt#z.p.LQtQtQt#z#A.L.OQt.5#B.4.hQtQtQtQtQtQtQtQtQtQtQtQtQtQtQtQt",
"QtQtQtQtQtQtQt.z.p.qQtQtQt#C.p.qQtQtQt.t.p.uQtQtQtQt.G#q.L.qQtQtQt#D.p.LQtQtQt#D#E.L.OQt.e.V.w.hQtQtQtQtQtQtQtQtQtQtQtQtQtQtQtQt",
"QtQtQtQtQtQtQt.o.p.qQtQtQt.t.p.qQtQtQt.t.p.uQtQtQtQt.C##.L.qQtQtQt#F.p.LQtQtQt#F.4.L.OQt.m.9#B.hQtQtQtQtQtQtQtQtQtQtQtQtQtQtQtQt",
"QtQtQtQtQtQtQt#G.p.qQtQtQt#H.p.qQtQtQt.g.p.uQtQtQtQt.z.U.L.qQtQtQt#I.p.LQtQtQt#J.4.L.OQt.F.r.3.hQtQtQtQtQtQtQtQtQtQtQtQtQtQtQtQt",
"QtQtQtQtQtQtQt#K.p.qQtQtQt.g.p.qQtQtQt#L#J.gQtQtQtQt.v#E.L.qQtQtQt#M.p.LQtQtQt.B.w.L.OQt.E.5#N.hQtQtQtQtQtQtQtQtQtQtQtQtQtQtQtQt",
"QtQtQtQtQtQtQt.c#O.mQtQtQt#P#v.cQtQtQt#P#v#LQtQtQtQt#H#Q#R.cQtQtQt.G#S.CQtQtQt.G.s.C.DQt.E.k#N.hQtQtQtQtQtQtQtQtQtQtQtQtQtQtQtQt",
"QtQtQtQtQtQtQtQtQtQtQtQtQt#T.b#UQtQtQt#T.b.eQtQtQtQt.k#c.c#UQtQtQt#V#H#LQtQtQt.2#e.c.mQt.E#W.h.FQtQtQtQtQtQtQtQtQtQtQtQtQtQtQtQt",
"QtQtQtQtQtQtQtQtQtQtQtQtQtQtQtQtQtQtQtQtQtQtQtQtQtQtQtQtQtQtQtQtQtQtQtQtQtQtQtQtQtQtQtQtQtQtQtQtQtQtQtQtQtQtQtQtQtQtQtQtQtQtQtQt",
"QtQtQtQtQtQtQtQtQtQtQtQtQtQtQtQtQtQtQtQtQtQtQtQtQtQtQtQtQtQtQtQtQtQtQtQtQtQtQtQtQtQtQtQtQtQtQtQtQtQtQtQtQtQtQtQtQtQtQtQtQtQtQtQt",
"QtQtQtQtQtQtQtQtQtQtQtQtQtQtQtQtQtQtQtQtQtQtQtQtQtQtQtQtQtQtQtQtQtQtQtQtQtQtQtQtQtQtQtQtQtQtQtQtQtQtQtQtQtQtQtQtQtQtQtQtQtQtQtQt",
"QtQtQtQtQtQtQtQtQtQtQtQtQtQtQtQtQtQtQtQtQtQtQtQtQtQtQtQtQtQtQtQtQtQtQtQtQtQtQtQtQtQtQtQtQtQtQtQtQtQtQtQtQtQtQtQtQtQtQtQtQtQtQtQt",
"QtQtQtQtQtQtQtQtQtQtQtQtQtQtQtQtQtQtQtQtQtQtQtQtQtQtQtQtQtQtQtQtQtQtQtQtQtQtQtQtQtQtQtQtQtQtQtQtQtQtQtQtQtQtQtQtQtQtQtQtQtQtQtQt",
"QtQtQtQtQtQtQtQtQtQtQtQtQtQtQtQtQtQtQtQtQtQtQtQtQtQtQtQtQtQtQtQtQtQtQtQtQtQtQtQtQtQtQtQtQtQtQtQtQtQtQtQtQtQtQtQtQtQtQtQtQtQtQtQt",
"QtQtQtQtQtQtQtQtQtQtQtQtQtQtQtQtQtQtQtQtQtQtQtQtQtQtQtQtQtQtQtQtQtQtQtQtQtQtQtQtQtQtQtQtQtQtQtQtQtQtQtQtQtQtQtQtQtQtQtQtQtQtQtQt",
"QtQtQtQtQtQtQtQtQtQtQtQtQtQtQtQtQtQtQtQtQtQtQtQtQtQtQtQtQtQtQtQtQtQtQtQtQtQtQtQtQtQtQtQtQtQtQtQtQtQtQtQtQtQtQtQtQtQtQtQtQtQtQtQt",
"QtQtQtQtQtQtQtQtQtQtQtQtQtQtQtQtQtQtQtQtQtQtQtQtQtQtQtQtQtQtQtQtQtQtQtQtQtQtQtQtQtQtQtQtQtQtQtQtQtQtQtQtQtQtQtQtQtQtQtQtQtQtQtQt",
"QtQtQtQtQtQtQtQtQtQtQtQtQtQtQtQtQtQtQtQtQtQtQtQtQtQtQtQtQtQtQtQtQtQtQtQtQtQtQtQtQtQtQtQtQtQtQtQtQtQtQtQtQtQtQtQtQtQtQtQtQtQtQtQt",
"QtQtQtQtQtQtQtQtQtQtQtQtQtQtQtQtQtQtQtQtQtQtQtQtQtQtQtQtQtQtQtQtQtQtQtQtQtQtQtQtQtQtQtQtQtQtQtQtQtQtQtQtQtQtQtQtQtQtQtQtQtQtQtQt",
"QtQtQtQtQtQtQtQtQtQtQtQtQtQtQtQtQtQtQtQtQtQtQtQtQtQtQtQtQtQtQtQtQtQtQtQtQtQtQtQtQtQtQtQtQtQtQtQtQtQtQtQtQtQtQtQtQtQtQtQtQtQtQtQt",
"QtQtQtQtQtQtQtQtQtQtQtQtQtQtQtQtQtQtQtQtQtQtQtQtQtQtQtQtQtQtQtQtQtQtQtQtQtQtQtQtQtQtQtQtQtQtQtQtQtQtQtQtQtQtQtQtQtQtQtQtQtQtQtQt",
"QtQtQtQtQtQtQtQtQtQtQtQtQtQtQtQtQtQtQtQtQtQtQtQtQtQtQtQtQtQtQtQtQtQtQtQtQtQtQtQtQtQtQtQtQtQtQtQtQtQtQtQtQtQtQtQtQtQtQtQtQtQtQtQt",
"QtQtQtQtQtQtQtQtQtQtQtQtQtQtQtQtQtQtQtQtQtQtQtQtQtQtQtQtQtQtQtQtQtQtQtQtQtQtQtQtQtQtQtQtQtQtQtQtQtQtQtQtQtQtQtQtQtQtQtQtQtQtQtQt",
"QtQtQtQtQtQtQtQtQtQtQtQtQtQtQtQtQtQtQtQtQtQtQtQtQtQtQtQtQtQtQtQtQtQtQtQtQtQtQtQtQtQtQtQtQtQtQtQtQtQtQtQtQtQtQtQtQtQtQtQtQtQtQtQt",
"QtQtQtQtQtQtQtQtQtQtQtQtQtQtQtQtQtQtQtQtQtQtQtQtQtQtQtQtQtQtQtQtQtQtQtQtQtQtQtQtQtQtQtQtQtQtQtQtQtQtQtQtQtQtQtQtQtQtQtQtQtQtQtQt",
"QtQtQtQtQtQtQtQtQtQtQtQtQtQtQtQtQtQtQtQtQtQtQtQtQtQtQtQtQtQtQtQtQtQtQtQtQtQtQtQtQtQtQtQtQtQtQtQtQtQtQtQtQtQtQtQtQtQtQtQtQtQtQtQt",
"QtQtQtQtQtQtQtQtQtQtQtQtQtQtQtQtQtQtQtQtQtQtQtQtQtQtQtQtQtQtQtQtQtQtQtQtQtQtQtQtQtQtQtQtQtQtQtQtQtQtQtQtQtQtQtQtQtQtQtQtQtQtQtQt",
"QtQtQtQtQtQtQtQtQtQtQtQtQtQtQtQtQtQtQtQtQtQtQtQtQtQtQtQtQtQtQtQtQtQtQtQtQtQtQtQtQtQtQtQtQtQtQtQtQtQtQtQtQtQtQtQtQtQtQtQtQtQtQtQt",
"QtQtQtQtQtQtQtQtQtQtQtQtQtQtQtQtQtQtQtQtQtQtQtQtQtQtQtQtQtQtQtQtQtQtQtQtQtQtQtQtQtQtQtQtQtQtQtQtQtQtQtQtQtQtQtQtQtQtQtQtQtQtQtQt",
"QtQtQtQtQtQtQtQtQtQtQtQtQtQtQtQtQtQtQtQtQtQtQtQtQtQtQtQtQtQtQtQtQtQtQtQtQtQtQtQtQtQtQtQtQtQtQtQtQtQtQtQtQtQtQtQtQtQtQtQtQtQtQtQt",
"QtQtQtQtQtQtQtQtQtQtQtQtQtQtQtQtQtQtQtQtQtQtQtQtQtQtQtQtQtQtQtQtQtQtQtQtQtQtQtQtQtQtQtQtQtQtQtQtQtQtQtQtQtQtQtQtQtQtQtQtQtQtQtQt",
"QtQtQtQtQtQtQtQtQtQtQtQtQtQtQtQtQtQtQtQtQtQtQtQtQtQtQtQtQtQtQtQtQtQtQtQtQtQtQtQtQtQtQtQtQtQtQtQtQtQtQtQtQtQtQtQtQtQtQtQtQtQtQtQt",
"QtQtQtQtQtQtQtQtQtQtQtQtQtQtQtQtQtQtQtQtQtQtQtQtQtQtQtQtQtQtQtQtQtQtQtQtQtQtQtQtQtQtQtQtQtQtQtQtQtQtQtQtQtQtQtQtQtQtQtQtQtQtQtQt",
"QtQtQtQtQtQtQtQtQtQtQtQtQtQtQtQtQtQtQtQtQtQtQtQtQtQtQtQtQtQtQtQtQtQtQtQtQtQtQtQtQtQtQtQtQtQtQtQtQtQtQtQtQtQtQtQtQtQtQtQtQtQtQtQt",
"QtQtQtQtQtQtQtQtQtQtQtQtQtQtQtQtQtQtQtQtQtQtQtQtQtQtQtQtQtQtQtQtQtQtQtQtQtQtQtQtQtQtQtQtQtQtQtQtQtQtQtQtQtQtQtQtQtQtQtQtQtQtQtQt",
"QtQtQtQtQtQtQtQtQtQtQtQtQtQtQtQtQtQtQtQtQtQtQtQtQtQtQtQtQtQtQtQtQtQtQtQtQtQtQtQtQtQtQtQtQtQtQtQtQtQtQtQtQtQtQtQtQtQtQtQtQtQtQtQt",
"QtQtQtQtQtQtQtQtQtQtQtQtQtQtQtQtQtQtQtQtQtQtQtQtQtQtQtQtQtQtQtQtQtQtQtQtQtQtQtQtQtQtQtQtQtQtQtQtQtQtQtQtQtQtQtQtQtQtQtQtQtQtQtQt",
"QtQtQtQtQtQtQtQtQtQtQtQtQtQtQtQtQtQtQtQtQtQtQtQtQtQtQtQtQtQtQtQtQtQtQtQtQtQtQtQtQtQtQtQtQtQtQtQtQtQtQtQtQtQtQtQtQtQtQtQtQtQtQtQt",
"QtQtQtQtQtQtQtQtQtQtQtQtQtQtQtQtQtQtQtQtQtQtQtQtQtQtQtQtQtQtQtQtQtQtQtQtQtQtQtQtQtQtQtQtQtQtQtQtQtQtQtQtQtQtQtQtQtQtQtQtQtQtQtQt",
"QtQtQtQtQtQtQtQtQtQtQtQtQtQtQtQtQtQtQtQtQtQtQtQtQtQtQtQtQtQtQtQtQtQtQtQtQtQtQtQtQtQtQtQtQtQtQtQtQtQtQtQtQtQtQtQtQtQtQtQtQtQtQtQt",
"QtQtQtQtQtQtQtQtQtQtQtQtQtQtQtQtQtQtQtQtQtQtQtQtQtQtQtQtQtQtQtQtQtQtQtQtQtQtQtQtQtQtQtQtQtQtQtQtQtQtQtQtQtQtQtQtQtQtQtQtQtQtQtQt",
"QtQtQtQtQtQtQtQtQtQtQtQtQtQtQtQtQtQtQtQtQtQtQtQtQtQtQtQtQtQtQtQtQtQtQtQtQtQtQtQtQtQtQtQtQtQtQtQtQtQtQtQtQtQtQtQtQtQtQtQtQtQtQtQt",
"QtQtQtQtQtQtQtQtQtQtQtQtQtQtQtQtQtQtQtQtQtQtQtQtQtQtQtQtQtQtQtQtQtQtQtQtQtQtQtQtQtQtQtQtQtQtQtQtQtQtQtQtQtQtQtQtQtQtQtQtQtQtQtQt",
"QtQtQtQtQtQtQtQtQtQtQtQtQtQtQtQtQtQtQtQtQtQtQtQtQtQtQtQtQtQtQtQtQtQtQtQtQtQtQtQtQtQtQtQtQtQtQtQtQtQtQtQtQtQtQtQtQtQtQtQtQtQtQtQt",
"QtQtQtQtQtQtQtQtQtQtQtQtQtQtQtQtQtQtQtQtQtQtQtQtQtQtQtQtQtQtQtQtQtQtQtQtQtQtQtQtQtQtQtQtQtQtQtQtQtQtQtQtQtQtQtQtQtQtQtQtQtQtQtQt",
"QtQtQtQtQtQtQtQtQtQtQtQtQtQtQtQtQtQtQtQtQtQtQtQtQtQtQtQtQtQtQtQtQtQtQtQtQtQtQtQtQtQtQtQtQtQtQtQtQtQtQtQtQtQtQtQtQtQtQtQtQtQtQtQt",
"QtQtQtQtQtQtQtQtQtQtQtQtQtQtQtQtQtQtQtQtQtQtQtQtQtQtQtQtQtQtQtQtQtQtQtQtQtQtQtQtQtQtQtQtQtQtQtQtQtQtQtQtQtQtQtQtQtQtQtQtQtQtQtQt",
"QtQtQtQtQtQtQtQtQtQtQtQtQtQtQtQtQtQtQtQtQtQtQtQtQtQtQtQtQtQtQtQtQtQtQtQtQtQtQtQtQtQtQtQtQtQtQtQtQtQtQtQtQtQtQtQtQtQtQtQtQtQtQtQt"};
