/* XPM */
static char *dummy[]={
"8 8 18 1",
"j c #8149f2",
"i c #8840f1",
"p c #893ef1",
"o c #8b3bf1",
"f c #8c39f1",
"h c #8d39f1",
"n c #9034f1",
"l c #9132f1",
"g c #9331f0",
"m c #952df0",
"c c #962cf0",
"b c #9829f0",
"# c #982af0",
"e c #9929f0",
"a c #9a27f0",
"k c #9c24f0",
". c #9e22f0",
"d c #a020f0",
".#ab#cdd",
"efghijdd",
"klmnopdd",
"dddddddd",
"dddddddd",
"dddddddd",
"dddddddd",
"dddddddd"};
