/* XPM */
static char *dummy[]={
"8 8 20 1",
"j c #804af2",
"q c #8543f1",
"i c #8840f1",
"p c #8b3bf1",
"f c #8c39f1",
"k c #8c3af1",
"h c #8d39f1",
"o c #9034f1",
"r c #9132f0",
"m c #9132f1",
"g c #9331f0",
"n c #952df0",
"c c #952ef0",
"b c #9829f0",
"# c #982af0",
"e c #9929f0",
"a c #9a27f0",
"l c #9c24f0",
". c #9e22f0",
"d c #a020f0",
".#ab#cad",
"efghijkd",
"lmnopqrd",
"dddddddd",
"dddddddd",
"dddddddd",
"dddddddd",
"dddddddd"};
