/* XPM */
static char *dummy[]={
"8 8 13 1",
"h c #8c3af1",
"f c #8e38f1",
"j c #9133f1",
"g c #9232f1",
"i c #952df0",
"k c #972bf0",
"# c #9829f0",
"e c #982af0",
"b c #9929f0",
"a c #9a28f0",
"c c #9c25f0",
". c #9d23f0",
"d c #a020f0",
".#abcddd",
"efghgddd",
"cgijkddd",
"dddddddd",
"dddddddd",
"dddddddd",
"dddddddd",
"dddddddd"};
