/* XPM */
static char *dummy[]={
"128 128 63 1",
"s c #6176f5",
"U c #6176f6",
"f c #6177f6",
"p c #6275f5",
"n c #6373f5",
"Y c #6472f5",
"l c #6571f5",
"k c #666ef5",
"Z c #666ff5",
"i c #676df5",
"2 c #686cf5",
"1 c #686df5",
"I c #696af5",
"e c #696bf5",
"G c #6a69f5",
"E c #6b68f4",
"J c #6b69f5",
"5 c #6c66f4",
"K c #6c67f4",
"C c #6d66f4",
"A c #6f62f4",
"M c #6f63f4",
"y c #7160f4",
"O c #725ff4",
"7 c #7260f4",
"w c #745cf4",
"Q c #755af3",
"S c #7658f3",
"u c #7857f3",
"V c #7955f3",
"g c #7a54f3",
"b c #7b52f3",
"r c #7b53f3",
"W c #7d50f3",
"o c #7e4ff2",
"8 c #8149f2",
"c c #8249f2",
"a c #8445f2",
"X c #8446f2",
"m c #8742f2",
"j c #8b3bf1",
"0 c #8b3cf2",
"h c #8e37f1",
"H c #8f36f1",
"F c #9035f1",
"D c #9134f1",
"B c #9232f1",
"3 c #9331f1",
"L c #942ff1",
"d c #9430f1",
"z c #952ef1",
"x c #972bf0",
"N c #982af0",
"v c #9a28f0",
"P c #9b25f0",
"R c #9c24f0",
"4 c #9c25f0",
"t c #9d23f0",
"6 c #9d24f0",
"# c #9e22f0",
"q c #9f20f0",
"T c #9f21f0",
". c #a020f0",
"................................................................................................................................",
"................................................................................................................................",
"................................................................................................................................",
"................................................................................................................................",
"................................................................................................................................",
"................................................................................................................................",
"................................................................................................................................",
"................................................................................................................................",
"..............#abc.....................abcc.....................................................................................",
"..............defg.........abc.........efgg..........aabcc......................................................................",
"..............hifg.........efg.........efgg..........eefgg......................................................................",
"..............jkfg.........kfg.........lfgg..........llfgg......................................................................",
"..............mlfg.........lfg.........nfgg..........llfgg......................................................................",
"..............cnfg.........nfg.........nfgg..........nnfgg......................................................................",
"..............opfg.........nfg.........pfgg..........nnfgg......................................................................",
".............qrsfg.........pfg.........pfgg..........ppfgg......................................................................",
".............tuffg.......ttffg........vffgg..........fffgg......................................................................",
".............vwffg.......vvffg........xffgg..........fffgg......................................................................",
".............xyffg.......xxffg........xffgg..........fffgg......................................................................",
".............zAffg.......xxffg........zffgg..........fffgg......................................................................",
".............BCffg.......zzffg........zffgg..........fffgg......................................................................",
".............DEffg.......DDffg........Fffgg..........fffgg......................................................................",
".............FGffg.......FFffg........Hffgg..........fffgg......................................................................",
".............HIffg.......HHffg........Hffgg..........fffgg......................................................................",
".............Heffg.......HHffg........Hffgg..........fffgg......................................................................",
".............FJffg.......HHffg........Hffgg..........fffgg......................................................................",
".............BKffg.......BBffg........Bffgg..........fffgg......................................................................",
".............BCffg.......BBffg........Lffgg..........fffgg......................................................................",
".............LMffg.......LLffg........Nffgg..........fffgg......................................................................",
".............NOffg.......NNffg........Nffgg..........fffgg......................................................................",
".............PQffg.......NNffg........Nffgg..........fffgg......................................................................",
".............RSffg.......RRffg........TUfgg..........UUfgg......................................................................",
".............TVUfg.......TTUfg.........pfgg..........UUfgg......................................................................",
"..............Wpfg.........pfg.........nfgg..........ppfgg......................................................................",
"..............cnfg.........nfg.........nfgg..........nnfgg......................................................................",
"..............XYfg.........nfg.........nfgg..........nnfgg......................................................................",
"..............mlfg.........lfg.........Zfgg..........ZZfgg......................................................................",
"..............0Zfg.........Zfg.........1fgg..........11fgg......................................................................",
"..............H1fg.........1fg.........2fgg..........11fgg......................................................................",
"..............F2fg.........2fg.........2fgg..........22fgg......................................................................",
"..............3efg.........2fg.........2fgg..........22fgg......................................................................",
"..............xGfg.........Gfg.........Kfgg..........KKfgg......................................................................",
"..............4Kfg.........Kfg.........5fgg..........55fgg......................................................................",
"..............65fg.........5fg.........b788..........55fgg......................................................................",
"..............qb78.........b78.........b788..........bb788......................................................................",
"...........................b78.........b788..........bb788......................................................................",
"................................................................................................................................",
"................................................................................................................................",
"................................................................................................................................",
"................................................................................................................................",
"................................................................................................................................",
"................................................................................................................................",
"................................................................................................................................",
"................................................................................................................................",
"................................................................................................................................",
"................................................................................................................................",
"................................................................................................................................",
"................................................................................................................................",
"................................................................................................................................",
"................................................................................................................................",
"................................................................................................................................",
"................................................................................................................................",
"................................................................................................................................",
"................................................................................................................................",
"................................................................................................................................",
"................................................................................................................................",
"................................................................................................................................",
"................................................................................................................................",
"................................................................................................................................",
"................................................................................................................................",
"................................................................................................................................",
"................................................................................................................................",
"................................................................................................................................",
"................................................................................................................................",
"................................................................................................................................",
"................................................................................................................................",
"................................................................................................................................",
"................................................................................................................................",
"................................................................................................................................",
"................................................................................................................................",
"................................................................................................................................",
"................................................................................................................................",
"................................................................................................................................",
"................................................................................................................................",
"................................................................................................................................",
"................................................................................................................................",
"................................................................................................................................",
"................................................................................................................................",
"................................................................................................................................",
"................................................................................................................................",
"................................................................................................................................",
"................................................................................................................................",
"................................................................................................................................",
"................................................................................................................................",
"................................................................................................................................",
"................................................................................................................................",
"................................................................................................................................",
"................................................................................................................................",
"................................................................................................................................",
"................................................................................................................................",
"................................................................................................................................",
"................................................................................................................................",
"................................................................................................................................",
"................................................................................................................................",
"................................................................................................................................",
"................................................................................................................................",
"................................................................................................................................",
"................................................................................................................................",
"................................................................................................................................",
"................................................................................................................................",
"................................................................................................................................",
"................................................................................................................................",
"................................................................................................................................",
"................................................................................................................................",
"................................................................................................................................",
"................................................................................................................................",
"................................................................................................................................",
"................................................................................................................................",
"................................................................................................................................",
"................................................................................................................................",
"................................................................................................................................",
"................................................................................................................................",
"................................................................................................................................",
"................................................................................................................................",
"................................................................................................................................",
"................................................................................................................................",
"................................................................................................................................",
"................................................................................................................................"};
