/* XPM */
static char *dummy[]={
"32 32 30 1",
"q c #7061f4",
"l c #715ff4",
"v c #745cf4",
"w c #7559f3",
"k c #7d4ff3",
"e c #7f4cf2",
"n c #8347f2",
"f c #8446f2",
"i c #8642f2",
"h c #883ff1",
"a c #883ff2",
"t c #8840f1",
"o c #8c39f1",
"r c #8c3af1",
"m c #8d3af1",
"s c #8e37f1",
"p c #8e38f1",
"c c #8f37f1",
"# c #9034f1",
"j c #9035f1",
"u c #9133f1",
"A c #9134f1",
"g c #9232f1",
"d c #9330f1",
"z c #962df0",
"b c #972bf0",
"B c #982af0",
"y c #9b26f0",
"x c #9d23f0",
". c #a020f0",
"................................",
"................................",
"...#a.bc.de..fg.................",
"...hi.#i.jk..lm.................",
"...ni.oi.pk..qm.................",
"...ei.ai.rk..qm.................",
"...ei.ai.rk..qm.................",
"...ni.ri.sk..qm.................",
"...ti.ji.#k..lm.................",
"...ri.ui.uk..vm.................",
"...#i.gi.de..wm.................",
"...xy.yz.yg..AB.................",
"................................",
"................................",
"................................",
"................................",
"................................",
"................................",
"................................",
"................................",
"................................",
"................................",
"................................",
"................................",
"................................",
"................................",
"................................",
"................................",
"................................",
"................................",
"................................",
"................................"};
