/* XPM */
static char *dummy[]={
"8 8 15 1",
"i c #8248f2",
"m c #893ef1",
"f c #8e38f1",
"h c #8f36f1",
"g c #9232f1",
"l c #952df0",
"c c #972bf0",
"# c #9829f0",
"e c #982af0",
"j c #9928f0",
"b c #9929f0",
"a c #9a28f0",
"k c #9c25f0",
". c #9d23f0",
"d c #a020f0",
".#abc.dd",
"efghijdd",
"kglgmadd",
"dddddddd",
"dddddddd",
"dddddddd",
"dddddddd",
"dddddddd"};
