/* XPM */
static char *dummy[]={
"16 16 40 1",
"q c #7d4ef2",
"t c #7d4ff2",
"y c #7d4ff3",
"z c #7e4df2",
"B c #8445f2",
"s c #8446f2",
"J c #8544f1",
"o c #8642f2",
"w c #8740f1",
"K c #883ef1",
"j c #883ff1",
"g c #893ef1",
"i c #8b3bf1",
"u c #8c39f1",
"e c #8c3af1",
"D c #8d39f1",
"d c #8e37f1",
"n c #8e38f1",
"b c #8f36f1",
"C c #9034f1",
"I c #9035f1",
"G c #9132f0",
"L c #9133f0",
"m c #9133f1",
"l c #9231f0",
"v c #9232f0",
"a c #9232f1",
"k c #9330f0",
"H c #9331f0",
"r c #9331f1",
"p c #942ff0",
"A c #9430f0",
"f c #962df0",
"F c #972af0",
"h c #972bf0",
"x c #9829f0",
"# c #982af0",
"c c #9a27f0",
"E c #9c24f0",
". c #a020f0",
"................",
".#abcdefghijhk..",
".lmj#nopqrstuu..",
".vmwxnopqrsyiu..",
".hmicnwpzABzCD..",
".EFGEHIhJ#iK#L..",
"................",
"................",
"................",
"................",
"................",
"................",
"................",
"................",
"................",
"................"};
