/* XPM */
static char *dummy[]={
"16 16 9 1",
"b c #8a3df1",
"d c #8e37f1",
"# c #9035f1",
"f c #972bf0",
"a c #9a27f0",
"e c #9a28f0",
"g c #9c25f0",
"c c #9d22f0",
". c #a020f0",
"................",
".#a.............",
".bc.............",
".bc.............",
".de.............",
".fg.............",
"................",
"................",
"................",
"................",
"................",
"................",
"................",
"................",
"................",
"................"};
