/* XPM */
static char *dummy[]={
"16 16 13 1",
"g c #8346f2",
"e c #8445f2",
"i c #893ef1",
"b c #8d38f1",
"f c #9034f1",
"c c #9035f1",
"a c #9330f1",
"d c #9331f1",
"h c #952ef0",
"# c #962df0",
"k c #982af0",
"j c #9b25f0",
". c #a020f0",
"................",
".#ab............",
".cde............",
".fdg............",
".hdi............",
".jkh............",
"................",
"................",
"................",
"................",
"................",
"................",
"................",
"................",
"................",
"................"};
