/* XPM */
static char *dummy[]={
"16 16 28 1",
"u c #7a52f3",
"n c #7a54f3",
"z c #8347f2",
"f c #8643f2",
"j c #883ff2",
"m c #8840f2",
"t c #893ff2",
"q c #8a3df1",
"o c #8b3bf1",
"d c #8d39f1",
"l c #8e37f1",
"b c #8f36f1",
"p c #9034f1",
"h c #9035f1",
"y c #9133f1",
"w c #9232f1",
"a c #9330f1",
"i c #9331f1",
"x c #942ff0",
"r c #952ef0",
"k c #962cf0",
"# c #962df0",
"e c #972bf0",
"g c #972cf0",
"s c #982af0",
"c c #9929f0",
"v c #9b25f0",
". c #a020f0",
"................",
".#abcbdefeg.....",
".hijklm#noi.....",
".pijklm#nqi.....",
".rioslt#ubi.....",
".vswvxyczsx.....",
"................",
"................",
"................",
"................",
"................",
"................",
"................",
"................",
"................",
"................"};
