/* XPM */
static char	*nbr4[] = {
"12 14 2 1",
"# c #000000",
". c #ffffff",
"#########..#",
"########..##",
"#######..###",
"######..####",
"#####..#####",
"####..######",
"###..#######",
"##..########",
"#..####..###",
"#..####..###",
"#..........#",
"#..........#",
"#######..###",
"#######..###",
};
