/* XPM */
static char	*nbr8[] = {
"12 14 2 1",
"# c #000000",
". c #ffffff",
"####....####",
"##........##",
"#..######..#",
"#..######..#",
"##..####..##",
"###......###",
"##........##",
"#..######..#",
"#..######..#",
"#..######..#",
"#..######..#",
"#..######..#",
"##........##",
"###......###",
};
