/* XPM */
static char *player_7_D_8p[] = {
/* columns rows colors chars-per-pixel */
"8 8 2 1 ",
"# c #aa1005",
". c #ffffff",
/* pixels */
"########",
"#..#####",
"#...####",
"#....###",
"#..#..##",
"#..##..#",
"########",
"########",
};
