/* XPM */
static char *player_4_L_32p[] = {
/* columns rows colors chars-per-pixel */
"32 32 2 1 ",
"# c #aa1005",
". c #ffffff",
/* pixels */
"################################",
"################################",
"################################",
"################################",
"################################",
"################################",
"################################",
"################################",
"################################",
"################################",
"################################",
"################################",
"################################",
"################################",
"##############....##############",
"##############....##############",
"##############....##############",
"##############....##############",
"##############....##############",
"##############....##############",
"##############....##############",
"##############....##############",
"##############....##############",
"##############....##############",
"##############....##############",
"##############....##############",
"##############....##############",
"##############....##############",
"##############....##############",
"##############....##############",
"################################",
"################################",
};
