/* XPM */
static char *player_7_D_32P[] = {
/* columns rows colors chars-per-pixel */
"32 32 2 1 ",
"# c #aa1005",
". c #ffffff",
/* pixels */
"################################",
"################################",
"##..############################",
"##...###########################",
"##....##########################",
"##.....#########################",
"##......########################",
"##.......#######################",
"##........######################",
"##....#....#####################",
"##....##....####################",
"##....###....###################",
"##....####....##################",
"##....#####....#################",
"##....######....################",
"##....#######....###############",
"##....########....##############",
"##....#########....#############",
"##....##########....############",
"##....###########....###########",
"##....############....##########",
"##....#############....#########",
"##....##############....########",
"##....###############....#######",
"##....################....######",
"##....#################....#####",
"##....##################....####",
"##....###################....###",
"##....####################....##",
"##....#####################...##",
"################################",
"################################",
};
