/* XPM */
static char *player_6_D_64p[] = {
/* columns rows colors chars-per-pixel */
"64 64 2 1 ",
"# c #aa1005",
". c #ffffff",
/* pixels */
"################################################################",
"################################################################",
"################################################################",
"################################################################",
"################################################################",
"################################################################",
"################################################################",
"################################################################",
"################################################################",
"################################################################",
"################################################################",
"################################################################",
"################################################################",
"################################################################",
"################################################################",
"################################################################",
"################################################################",
"################################################################",
"################################################################",
"################################################################",
"################################################################",
"################################################################",
"################################################################",
"################################################################",
"################################################################",
"################################################################",
"################################################################",
"################################################################",
"##...................................###########################",
"##...................................###########################",
"##...................................###########################",
"##...................................###########################",
"##...................................###########################",
"##...................................###########################",
"##...................................###########################",
"##...................................###########################",
"##........######################################################",
"##........######################################################",
"##........######################################################",
"##........######################################################",
"##........######################################################",
"##........######################################################",
"##........######################################################",
"##........######################################################",
"##........######################################################",
"##........######################################################",
"##........######################################################",
"##........######################################################",
"##........######################################################",
"##........######################################################",
"##........######################################################",
"##........######################################################",
"##........######################################################",
"##........######################################################",
"##........######################################################",
"##........######################################################",
"##........######################################################",
"##........######################################################",
"##........######################################################",
"##........######################################################",
"##........######################################################",
"##........######################################################",
"################################################################",
"################################################################",
};
