/* XPM */
static char *player_0_L_16p[] = {
/* columns rows colors chars-per-pixel */
"16 16 3 1 ",
"# c #aa1005",
". c #ffffff",
"  c None",
/* pixels */
"                ",
"                ",
"                ",
"                ",
"                ",
"                ",
"                ",
"################",
"#........#######",
"#........#######",
"#######..#######",
"#######..#######",
"#######..#######",
"#######..#######",
"#######..#######",
"################",
};
