/* XPM */
static char *dummy[]={
"8 8 3 1",
"# c #aa1005",
". c #ffffff",
"  c None",
"        ",
"        ",
"        ",
"        ",
"########",
"#...####",
"#...####",
"########"
};
