/* XPM */
static char *player_2_D_8[] = {
/* columns rows colors chars-per-pixel */
"8 8 2 1 ",
"# c #aa1005",
". c #ffffff",
/* pixels */
"########",
"########",
"########",
"###....#",
"###....#",
"########",
"########",
"########",
};
